Patient4_TMGait_0pt4_01_left_32_EMG.mot
version=1
nRows=23
nColumns=33
inDegrees=no
endheader
time	1LAddLong	2LGlutMax	3LGlutMed	4LIliopsoas	5LSemiMemb	6LBicFemLong	7LRecFem	8LVastMed	9LVastLat	10LGasMed	11LTibAnt	12lTibPost	13LPeroneusLong	14LSol	15LExtDigLong	16LFlexDigLong	17RAddLong	18RGlutMax	19RGlutMed	20RIliopsoas	21RSemiMemb	22RBicFemLong	23RRecFem	24RVastMed	25RVastLat	26RGasMed	27RTibAnt	28RTibPost	29RPeroneusLong	30RSol	31RExtDigLong	32RFlexDigLong
40.83	0.012512	-0.12177	0.009613	0.002289	0.024567	-0.005341	-0.062561	0.006256	0.028839	-0.018005	-0.22385	-0.006714	-0.030212	-0.049133	-0.019836	-0.009003	0.043488	-0.10391	0.50659	-0.05188	-0.015106	-0.049896	-0.10223	0.016785	0.049438	0.004425	-0.010834	-0.00824	0.43732	-0.028076	-0.003052	-0.010071
40.831	0.018768	-0.13199	0.089569	-0.013275	0.011444	0.041809	-0.042114	-0.000153	0.026398	-0.030823	-0.2095	-0.001221	0.025635	-0.028992	-0.072327	-0.00061	0.069122	-0.062714	0.75577	-0.057068	-0.15167	-0.095062	-0.007019	-0.092163	0.005798	0	0.27725	-0.002899	0.55801	-0.080872	-0.003662	-0.000763
40.832	0.016327	-0.1387	0.023499	0.004272	-0.019836	0.016785	-0.031738	0.001831	0.011292	-0.028381	-0.12329	-0.004272	0.003204	-0.006409	-0.071411	-0.004272	0.090027	-0.004883	0.867	-0.053253	-0.33569	-0.083313	0.071259	-0.16159	0	-0.026093	0.41534	0.000305	0.043793	-0.13412	-0.00473	-0.004883
40.833	0.009308	-0.11383	-0.054321	-0.015259	-0.050812	0.012207	-0.03418	0.000458	0.001526	-0.009613	-0.064392	-0.002747	-0.028839	-0.024109	-0.018005	-0.00412	0.058746	-0.00473	0.5986	-0.083008	-0.50339	-0.038452	0.019531	-0.068054	0.048676	-0.02594	0.38467	-0.002594	-0.17563	-0.19623	-0.000305	0.001068
40.834	0.013733	-0.095367	-0.12741	-0.000916	-0.10925	0.006104	-0.051575	0.008087	0.000305	-0.004272	-0.03067	0.002289	-0.055542	-0.023193	0.013275	-0.003052	0.026398	-0.08667	0.12802	-0.096588	0.11154	0.054169	0.02655	-0.032501	0.022583	-0.003967	0.4538	-0.006714	-0.085602	-0.22079	-0.001068	-0.007629
40.835	0.004578	-0.11093	-0.1831	0.007019	-0.087738	0.007629	-0.037537	0.005035	-0.011292	-0.017242	-0.027313	0.002747	-0.055237	-0.031433	0.014648	0.005798	-0.032349	-0.09903	-0.65231	-0.024414	0.2681	0.15366	-0.0177	0.13718	0.07431	0.00412	0.45761	-0.003967	-0.32455	-0.26504	0.007172	-0.008087
40.836	0.016174	-0.088501	-0.16205	0.003815	0.029602	-0.001984	-0.052185	0.003357	-0.017548	-0.027313	-0.029449	-0.002441	-0.015259	-0.046997	0.008392	0.006256	-0.066223	-0.068207	-0.52978	0.003967	0.21423	0.24246	-0.013428	0.17746	0.043793	0.011597	0.28625	-0.003052	-0.29282	-0.097656	-0.002441	-0.018005
40.837	0.016327	-0.11475	-0.05188	-0.014648	0.064545	0.037994	-0.028229	-0.000305	-0.002441	-0.027313	-0.02121	-0.001526	-0.029755	-0.057068	0.012207	-0.011902	-0.028839	-0.059509	-0.32791	0.079041	-0.037384	0.1181	0.009766	0.10239	0.024567	0.020294	0.072632	-0.005646	-0.2066	-0.017242	-0.002136	-0.018616
40.838	0.014038	-0.12177	0.042877	-0.012207	0.031586	0.059357	-0.032806	0.009613	-0.013733	-0.028229	-0.015106	-0.00061	-0.035706	-0.088806	0.018158	-0.001526	-0.03006	-0.10712	-0.3212	0.077667	0.079346	0.002899	-0.048065	0.13947	0.026245	0.028076	-0.41718	-0.006409	-0.011444	-0.003052	-0.003967	-0.016022
40.839	0.001221	-0.12741	0.02655	-0.000153	-0.002594	0.11139	-0.028687	0.003815	-0.012512	-0.029755	-0.003967	0.00351	-0.059662	-0.10986	0.005188	-0.001526	-0.056	-0.11108	-0.34561	0.067902	0.25055	-0.06485	-0.020294	0.15656	0.03891	0.005646	-0.66437	-0.00885	0.073547	0.13687	-0.001678	-0.007782
40.84	0	-0.13718	0.054169	-0.015259	-0.038147	0.11658	-0.022583	0.00885	-0.039978	-0.018463	-0.004578	0.001373	-0.079041	-0.15045	0.011749	0.005646	-0.046844	-0.0914	-0.26825	0.034332	0.18494	-0.046387	-0.035248	0.11795	0.012665	0.007019	-0.4071	-0.003967	-0.094604	0.088959	-0.002136	-0.011139
40.841	0.034943	-0.12024	0.00412	0.010376	-0.046997	0.093384	-0.042419	0.007935	-0.037079	-0.058441	0.002289	0.006104	-0.068207	-0.031738	0.010834	-0.003662	-0.044556	-0.074768	-0.21637	0.000763	0.19348	0.029755	0.003815	0.073395	0.007324	-0.005188	-0.17303	-0.000763	-0.018005	-0.051727	-0.00351	-0.009003
40.842	-0.021667	-0.099945	-0.078888	-0.015106	-0.043945	0.062256	-0.048523	0.006714	-0.030212	-0.065155	-0.00412	0.005646	-0.041656	-0.038147	0.019836	-0.010529	-0.044098	-0.028229	-0.19516	-0.014191	0.17395	0.042267	0.035553	0.078888	0.015106	-0.050049	-0.066681	-0.018921	-0.11719	-0.20554	0	-0.002594
40.843	0.087128	-0.13992	-0.11475	-0.002136	-0.041962	0.011444	-0.024567	0.007935	-0.036926	-0.071106	0.000458	-0.000458	-0.045166	0.006714	0.02121	-0.00412	-0.011902	-0.009766	-0.18402	-0.014648	0.067596	0.022278	0.085602	0.12131	0.017548	-0.072021	0.023804	-0.039368	-0.48126	-0.48492	-0.002899	-0.001678
40.844	-0.002441	-0.13901	-0.14679	0.012817	0.011292	-0.030823	-0.040436	0.009308	-0.028076	-0.044403	0.003204	-0.001373	-0.054779	0.010681	0.018921	-0.017548	0.003662	-0.093079	-0.29037	0.019226	0.030365	0.007629	0.11963	0.075684	0.006866	-0.077515	0.016174	0.014343	-0.59006	-0.31967	0.003967	-0.003204
40.845	-0.026398	-0.1088	-0.16266	0.019836	0.037384	-0.025787	-0.030518	0.005798	-0.030975	-0.035095	0.011139	-0.005341	-0.045624	0.052338	0.012207	-0.014191	-0.000916	-0.061035	-0.42343	0.064087	0.019073	-0.004883	0.14023	0.031433	0.003967	-0.10498	0.029602	-0.009003	-0.15671	0.41687	-0.001984	-0.009613
40.846	-0.002594	-0.10376	-0.13794	-0.002899	-0.011292	0.032501	-0.035706	0.007629	-0.019226	-0.017242	0.003357	0.003662	-0.03952	0.020447	0.000763	-0.007782	0.003662	-0.078735	-0.17761	0.076294	0.010376	-0.02243	0.24918	-0.019073	0.00412	-0.16892	0.018311	0.021973	0.13306	0.55466	0	-0.004883
40.847	0.009613	-0.17303	-0.002441	-0.007324	-0.039215	0.057831	-0.044861	0.005035	-0.013428	-0.013275	0.007782	0.002441	-0.038147	-0.007477	0.012054	-0.006409	0.017395	-0.076141	-0.13657	0.06897	0.016479	-0.053406	0.29968	-0.030975	-0.002289	-0.093384	-0.089264	0.032959	0.36819	0.26398	-0.001373	-0.002594
40.848	0.01709	-0.11704	0.10056	0.012054	-0.034485	0.039673	-0.037689	0.001526	-0.016327	-0.01358	0.000458	0.001068	-0.046844	-0.028687	0.012817	-0.005341	0.016174	-0.038452	-0.8255	0.015564	0.003815	-0.070648	0.18112	-0.072174	-0.017395	0.03479	-0.096588	-0.016479	0.50797	0.19379	0.003204	0
40.849	0.019073	-0.1622	0.010681	0.016174	-0.058746	-0.002289	-0.037079	-0.000305	-0.027771	-0.043488	0.009308	0.006714	-0.05127	-0.030365	0.005035	-0.007782	0.010529	-0.080872	-0.17456	-0.048828	0.020599	-0.015564	0.048981	-0.17425	-0.009918	0.051575	-0.053558	-0.032043	0.40436	0.25848	-0.000458	-0.010681
40.85	0.032654	-0.13153	0.081329	0.004578	-0.054474	-0.040436	-0.043945	0.000305	-0.014954	-0.056305	0.008392	0.005035	-0.061798	-0.026245	0.007172	-0.007019	0.011597	-0.13855	1.5747	-0.076141	0.04715	-0.031586	-0.045471	-0.18082	0.024261	-0.032654	-0.027924	0.051117	0.24918	0.2063	-0.001984	-0.013733
40.851	0.031738	-0.16907	0.061035	-0.015259	0.004883	-0.040741	-0.04715	0.00412	-0.011597	-0.043945	0.007782	-0.001221	-0.067596	-0.023651	0.007629	-0.00885	0.027161	-0.11719	0.33218	-0.019989	0.077057	-0.075989	0.043945	-0.21927	-0.023499	-0.093079	-0.015564	-0.092163	0.18509	0.21027	-0.00412	-0.017548
40.852	0.027466	-0.14908	-0.005341	-0.001526	-0.010071	-0.005951	-0.042572	0.006409	-0.00473	-0.033722	0.007324	0.001068	-0.076447	-0.06073	0.002441	-0.010376	0.029144	-0.13748	-0.18677	0.02182	0.079956	-0.039063	-0.089569	-0.2124	-0.059509	-0.002747	0.031586	0.038147	0.089722	0.21362	-0.001068	-0.014496
